<svg viewBox="0 0 194 194" fill="none" xmlns="http://www.w3.org/2000/svg">
<path d="M180.078 74.0188C182.429 51.6488 166.2 31.6084 143.83 29.2572C121.46 26.906 101.42 43.1344 99.0687 65.5044C96.7176 87.8744 112.946 107.915 135.316 110.266C157.686 112.617 177.726 96.3888 180.078 74.0188Z" fill="url(#paint0_linear)"/>
<path d="M120.582 56.8369C124.121 59.0975 127.857 59.4901 131.789 58.0148" stroke="black" stroke-width="1.5" stroke-linecap="round"/>
<path d="M120.433 49.2669C120.541 48.2353 120.002 47.3331 119.228 47.2518C118.455 47.1704 117.739 47.9408 117.631 48.9724C117.523 50.0041 118.062 50.9063 118.836 50.9876C119.609 51.069 120.325 50.2986 120.433 49.2669Z" fill="black"/>
<path d="M135.376 50.8376C135.485 49.8059 134.945 48.9037 134.172 48.8224C133.398 48.741 132.683 49.5114 132.574 50.5431C132.466 51.5747 133.005 52.4769 133.779 52.5582C134.553 52.6396 135.268 51.8692 135.376 50.8376Z" fill="black"/>
<g filter="url(#filter0_b)">
<mask id="mask0" mask-type="alpha" maskUnits="userSpaceOnUse" x="10" y="53" width="172" height="116">
<path fill-rule="evenodd" clip-rule="evenodd" d="M71.2527 168.602C70.0838 168.673 68.9056 168.708 67.7189 168.708C35.8416 168.708 10 142.867 10 110.989C10 79.1121 35.8416 53.2705 67.7189 53.2705C93.4981 53.2705 115.33 70.1708 122.739 93.4966C128.438 90.3802 134.977 88.6086 141.929 88.6086C164.048 88.6086 181.979 106.54 181.979 128.658C181.979 150.777 164.048 168.708 141.929 168.708H71.2527V168.602Z" fill="white"/>
</mask>
<g mask="url(#mask0)">
<path fill-rule="evenodd" clip-rule="evenodd" d="M71.2527 168.602C70.0838 168.673 68.9056 168.708 67.7189 168.708C35.8416 168.708 10 142.867 10 110.989C10 79.1121 35.8416 53.2705 67.7189 53.2705C93.4981 53.2705 115.33 70.1708 122.739 93.4966C128.438 90.3802 134.977 88.6086 141.929 88.6086C164.048 88.6086 181.979 106.54 181.979 128.658C181.979 150.777 164.048 168.708 141.929 168.708H71.2527V168.602Z" fill="url(#paint1_linear)"/>
<path d="M71.2527 168.602H72.4306V167.351L71.1818 167.426L71.2527 168.602ZM122.739 93.4966L121.617 93.8532L122.05 95.2163L123.305 94.5301L122.739 93.4966ZM71.2527 168.708H70.0747V169.886H71.2527V168.708ZM71.1818 167.426C70.0363 167.495 68.8817 167.53 67.7189 167.53V169.886C68.9293 169.886 70.1313 169.85 71.3236 169.778L71.1818 167.426ZM67.7189 167.53C36.4922 167.53 11.1779 142.216 11.1779 110.989H8.82202C8.82202 143.517 35.1911 169.886 67.7189 169.886V167.53ZM11.1779 110.989C11.1779 79.7628 36.4922 54.4484 67.7189 54.4484V52.0925C35.1911 52.0925 8.82202 78.4616 8.82202 110.989H11.1779ZM67.7189 54.4484C92.9703 54.4484 114.358 71.0024 121.617 93.8532L123.862 93.1399C116.302 69.3394 94.026 52.0925 67.7189 52.0925V54.4484ZM123.305 94.5301C128.834 91.5061 135.179 89.7865 141.929 89.7865V87.4307C134.774 87.4307 128.041 89.2543 122.174 92.463L123.305 94.5301ZM141.929 89.7865C163.397 89.7865 180.801 107.19 180.801 128.658H183.157C183.157 105.889 164.698 87.4307 141.929 87.4307V89.7865ZM180.801 128.658C180.801 150.127 163.397 167.53 141.929 167.53V169.886C164.698 169.886 183.157 151.428 183.157 128.658H180.801ZM141.929 167.53H71.2527V169.886H141.929V167.53ZM72.4306 168.708V168.602H70.0747V168.708H72.4306Z" fill="#E9E9E9" fill-opacity="0.6"/>
</g>
</g>
<defs>
<filter id="filter0_b" x="0" y="43.2705" width="191.979" height="135.438" filterUnits="userSpaceOnUse" color-interpolation-filters="sRGB">
<feFlood flood-opacity="0" result="BackgroundImageFix"/>
<feGaussianBlur in="BackgroundImage" stdDeviation="5"/>
<feComposite in2="SourceAlpha" operator="in" result="effect1_backgroundBlur"/>
<feBlend mode="normal" in="SourceGraphic" in2="effect1_backgroundBlur" result="shape"/>
</filter>
<linearGradient id="paint0_linear" x1="113.659" y1="39.1352" x2="167.844" y2="99.2101" gradientUnits="userSpaceOnUse">
<stop stop-color="#F7D649"/>
<stop offset="1" stop-color="#F0B61F"/>
</linearGradient>
<linearGradient id="paint1_linear" x1="33.5587" y1="66.2278" x2="225.562" y2="193.445" gradientUnits="userSpaceOnUse">
<stop stop-color="white" stop-opacity="0.7"/>
<stop offset="1" stop-color="white" stop-opacity="0.2"/>
</linearGradient>
</defs>
</svg>
