<svg viewBox="0 0 194 194" fill="none" xmlns="http://www.w3.org/2000/svg">
<line x1="140.837" y1="145.407" x2="143.753" y2="140.163" stroke="#5DB3F3" stroke-opacity="0.9" stroke-width="6" stroke-linecap="round"/>
<path d="M167.362 62.8953C169.371 43.7762 155.501 26.648 136.382 24.6385C117.263 22.629 100.135 36.4991 98.1252 55.6182C96.1157 74.7373 109.986 91.8655 129.105 93.875C148.224 95.8845 165.352 82.0144 167.362 62.8953Z" fill="url(#paint0_linear)"/>
<path d="M116.39 49.0929C119.825 48.0525 122.99 48.5943 125.883 50.7184" stroke="black" stroke-width="1.5" stroke-linecap="round"/>
<path d="M116.385 41.7404C116.477 40.8587 116.016 40.0876 115.355 40.0181C114.694 39.9486 114.083 40.607 113.99 41.4887C113.897 42.3704 114.358 43.1415 115.019 43.211C115.681 43.2805 116.292 42.6221 116.385 41.7404Z" fill="black"/>
<path d="M129.156 43.0827C129.249 42.201 128.788 41.4299 128.127 41.3604C127.466 41.2909 126.854 41.9493 126.762 42.831C126.669 43.7128 127.13 44.4839 127.791 44.5534C128.453 44.6229 129.064 43.9644 129.156 43.0827Z" fill="black"/>
<path fill-rule="evenodd" clip-rule="evenodd" d="M74.3513 143.733C73.3522 143.794 72.3453 143.824 71.3311 143.824C44.0862 143.824 22 121.738 22 94.4932C22 67.2484 44.0862 45.1622 71.3311 45.1622C93.3639 45.1622 112.023 59.6065 118.356 79.5425C123.226 76.879 128.815 75.3649 134.757 75.3649C153.661 75.3649 168.986 90.6901 168.986 109.595C168.986 128.499 153.661 143.824 134.757 143.824H74.3513V143.733Z" fill="url(#paint1_linear)"/>
<path fill-rule="evenodd" clip-rule="evenodd" d="M74.3513 143.733C73.3522 143.794 72.3453 143.824 71.3311 143.824C44.0862 143.824 22 121.738 22 94.4932C22 67.2484 44.0862 45.1622 71.3311 45.1622C93.3639 45.1622 112.023 59.6065 118.356 79.5425C123.226 76.879 128.815 75.3649 134.757 75.3649C153.661 75.3649 168.986 90.6901 168.986 109.595C168.986 128.499 153.661 143.824 134.757 143.824H74.3513V143.733Z" fill="url(#paint2_linear)"/>
<path d="M74.8513 143.202L74.3212 143.234C73.3321 143.294 72.3352 143.324 71.3311 143.324C44.3624 143.324 22.5 121.462 22.5 94.4932C22.5 67.5245 44.3624 45.6622 71.3311 45.6622C93.1399 45.6622 111.611 59.9595 117.879 79.6939L118.063 80.2725L118.596 79.9812C123.394 77.3569 128.901 75.8649 134.757 75.8649C153.385 75.8649 168.486 90.9663 168.486 109.595C168.486 128.223 153.385 143.324 134.757 143.324H74.8513V143.202Z" stroke="#D8D8D8" stroke-opacity="0.7"/>
<path d="M88.1114 153.021L107.779 130.036L103.884 148.051L112.91 150.002L92.0235 173.772L96.135 154.756L88.1114 153.021Z" fill="#F2BB26" fill-opacity="0.9"/>
<line x1="68.8365" y1="156.407" x2="71.7531" y2="151.163" stroke="#5DB3F3" stroke-opacity="0.9" stroke-width="6" stroke-linecap="round"/>
<line x1="49.8365" y1="174.398" x2="56.6418" y2="162.163" stroke="#5DB3F3" stroke-opacity="0.9" stroke-width="6" stroke-linecap="round"/>
<line x1="49.8365" y1="148.398" x2="56.6418" y2="136.163" stroke="#5DB3F3" stroke-opacity="0.9" stroke-width="6" stroke-linecap="round"/>
<line x1="133.837" y1="170.029" x2="138.211" y2="162.163" stroke="#5DB3F3" stroke-opacity="0.9" stroke-width="6" stroke-linecap="round"/>
<line x1="124.837" y1="155.88" x2="126.781" y2="152.384" stroke="#5DB3F3" stroke-opacity="0.9" stroke-width="6" stroke-linecap="round"/>
<defs>
<linearGradient id="paint0_linear" x1="110.595" y1="33.0811" x2="156.906" y2="84.4257" gradientUnits="userSpaceOnUse">
<stop stop-color="#F7D649"/>
<stop offset="1" stop-color="#F0B61F"/>
</linearGradient>
<linearGradient id="paint1_linear" x1="42.1351" y1="56.2365" x2="159" y2="135.5" gradientUnits="userSpaceOnUse">
<stop stop-color="#D7D7D7" stop-opacity="0.8"/>
<stop offset="1" stop-color="#D7D7D7" stop-opacity="0.3"/>
</linearGradient>
<linearGradient id="paint2_linear" x1="42.1351" y1="56.2365" x2="159" y2="135.5" gradientUnits="userSpaceOnUse">
<stop stop-color="#D7D7D7" stop-opacity="0.8"/>
<stop offset="1" stop-color="#D7D7D7" stop-opacity="0.3"/>
</linearGradient>
</defs>
</svg>
