<svg viewBox="0 0 194 194" fill="none" xmlns="http://www.w3.org/2000/svg">
<path d="M180.078 74.0188C182.429 51.6488 166.2 31.6084 143.83 29.2572C121.46 26.906 101.42 43.1344 99.0687 65.5044C96.7176 87.8744 112.946 107.915 135.316 110.266C157.686 112.617 177.726 96.3888 180.078 74.0188Z" fill="url(#paint0_linear)"/>
<path d="M120.582 56.8369C124.121 59.0975 127.857 59.4901 131.789 58.0148" stroke="black" stroke-width="1.5" stroke-linecap="round"/>
<path d="M120.433 49.2669C120.541 48.2353 120.002 47.3331 119.228 47.2517C118.455 47.1704 117.739 47.9408 117.631 48.9724C117.523 50.0041 118.062 50.9063 118.836 50.9876C119.609 51.0689 120.325 50.2986 120.433 49.2669Z" fill="black"/>
<path d="M135.376 50.8375C135.485 49.8059 134.945 48.9037 134.172 48.8224C133.398 48.741 132.683 49.5114 132.574 50.543C132.466 51.5747 133.005 52.4769 133.779 52.5582C134.553 52.6395 135.268 51.8692 135.376 50.8375Z" fill="black"/>
<path fill-rule="evenodd" clip-rule="evenodd" d="M71.2527 168.602C70.0838 168.673 68.9056 168.708 67.7189 168.708C35.8416 168.708 10 142.867 10 110.989C10 79.1121 35.8416 53.2705 67.7189 53.2705C93.4981 53.2705 115.33 70.1708 122.739 93.4966C128.438 90.3802 134.977 88.6086 141.929 88.6086C164.048 88.6086 181.979 106.54 181.979 128.658C181.979 150.777 164.048 168.708 141.929 168.708H71.2527V168.602Z" fill="url(#paint1_linear)"/>
<path fill-rule="evenodd" clip-rule="evenodd" d="M71.2527 168.602C70.0838 168.673 68.9056 168.708 67.7189 168.708C35.8416 168.708 10 142.867 10 110.989C10 79.1121 35.8416 53.2705 67.7189 53.2705C93.4981 53.2705 115.33 70.1708 122.739 93.4966C128.438 90.3802 134.977 88.6086 141.929 88.6086C164.048 88.6086 181.979 106.54 181.979 128.658C181.979 150.777 164.048 168.708 141.929 168.708H71.2527V168.602Z" fill="url(#paint2_linear)"/>
<path d="M71.2527 168.602C70.0838 168.673 68.9056 168.708 67.7189 168.708C35.8416 168.708 10 142.867 10 110.989C10 79.1121 35.8416 53.2705 67.7189 53.2705C93.4981 53.2705 115.33 70.1708 122.739 93.4966C128.438 90.3802 134.977 88.6086 141.929 88.6086C164.048 88.6086 181.979 106.54 181.979 128.658C181.979 150.777 164.048 168.708 141.929 168.708H71.2527V168.602Z" stroke="white" stroke-opacity="0.7" stroke-width="0.7"/>
<defs>
<linearGradient id="paint0_linear" x1="113.659" y1="39.1352" x2="167.844" y2="99.2101" gradientUnits="userSpaceOnUse">
<stop stop-color="#F7D649"/>
<stop offset="1" stop-color="#F0B61F"/>
</linearGradient>
<linearGradient id="paint1_linear" x1="33.5587" y1="66.2278" x2="169" y2="158.5" gradientUnits="userSpaceOnUse">
<stop stop-color="white" stop-opacity="0.7"/>
<stop offset="1" stop-color="white" stop-opacity="0.2"/>
</linearGradient>
<linearGradient id="paint2_linear" x1="33.5587" y1="66.2278" x2="169" y2="158.5" gradientUnits="userSpaceOnUse">
<stop stop-color="white" stop-opacity="0.7"/>
<stop offset="1" stop-color="white" stop-opacity="0.2"/>
</linearGradient>
</defs>
</svg>
