<svg viewBox="0 0 194 194" fill="none" xmlns="http://www.w3.org/2000/svg">
<path d="M169.391 104.609C173.594 64.628 144.589 28.8108 104.609 24.6086C64.628 20.4065 28.8108 49.4107 24.6086 89.3914C20.4065 129.372 49.4107 165.189 89.3914 169.391C129.372 173.593 165.189 144.589 169.391 104.609Z" fill="url(#paint0_linear)"/>
<path d="M63.0574 73.9003C69.3834 77.9405 76.0604 78.6423 83.0882 76.0056" stroke="black" stroke-width="3" stroke-linecap="round"/>
<path d="M62.7918 60.371C62.9856 58.5272 62.0217 56.9147 60.6388 56.7693C59.256 56.624 57.9779 58.0008 57.7841 59.8446C57.5903 61.6884 58.5542 63.3009 59.9371 63.4463C61.3199 63.5916 62.598 62.2148 62.7918 60.371Z" fill="black"/>
<path d="M89.4993 63.178C89.6931 61.3342 88.7291 59.7217 87.3463 59.5764C85.9634 59.4311 84.6853 60.8079 84.4915 62.6517C84.2977 64.4955 85.2616 66.108 86.6445 66.2533C88.0274 66.3987 89.3055 65.0218 89.4993 63.178Z" fill="black"/>
<defs>
<linearGradient id="paint0_linear" x1="50.6846" y1="42.2632" x2="147.527" y2="149.632" gradientUnits="userSpaceOnUse">
<stop stop-color="#F7D649"/>
<stop offset="1" stop-color="#F0B61F"/>
</linearGradient>
</defs>
</svg>
