<svg viewBox="0 0 194 194" fill="none" xmlns="http://www.w3.org/2000/svg">
<line x1="88.4905" y1="144.065" x2="90.8836" y2="138.563" stroke="#5DB3F3" stroke-opacity="0.7" stroke-width="6" stroke-linecap="round"/>
<line x1="62.9042" y1="149.569" x2="68.4882" y2="136.73" stroke="#5DB3F3" stroke-opacity="0.7" stroke-width="6" stroke-linecap="round"/>
<path d="M167.362 55.8953C169.371 36.7762 155.501 19.648 136.382 17.6385C117.263 15.629 100.135 29.4991 98.1252 48.6182C96.1157 67.7373 109.986 84.8655 129.105 86.875C148.224 88.8845 165.352 75.0144 167.362 55.8953Z" fill="url(#paint0_linear)"/>
<path d="M116.512 41.2103C119.537 43.1424 122.73 43.4779 126.091 42.2171" stroke="black" stroke-width="1.5" stroke-linecap="round"/>
<path d="M116.385 34.7404C116.477 33.8587 116.016 33.0876 115.355 33.0181C114.694 32.9486 114.083 33.607 113.99 34.4887C113.897 35.3704 114.358 36.1415 115.019 36.211C115.681 36.2805 116.292 35.6221 116.385 34.7404Z" fill="black"/>
<path d="M129.156 36.0827C129.249 35.201 128.788 34.4299 128.127 34.3604C127.466 34.2909 126.854 34.9493 126.762 35.831C126.669 36.7128 127.13 37.4839 127.791 37.5534C128.453 37.6229 129.064 36.9644 129.156 36.0827Z" fill="black"/>
<g filter="url(#filter0_b)">
<mask id="mask0" mask-type="alpha" maskUnits="userSpaceOnUse" x="22" y="38" width="147" height="99">
<path fill-rule="evenodd" clip-rule="evenodd" d="M74.3513 136.733C73.3522 136.794 72.3453 136.824 71.3311 136.824C44.0862 136.824 22 114.738 22 87.4932C22 60.2484 44.0862 38.1622 71.3311 38.1622C93.3639 38.1622 112.023 52.6065 118.356 72.5425C123.226 69.879 128.815 68.3649 134.757 68.3649C153.661 68.3649 168.986 83.6901 168.986 102.595C168.986 121.499 153.661 136.824 134.757 136.824H74.3513V136.733Z" fill="white"/>
</mask>
<g mask="url(#mask0)">
<path fill-rule="evenodd" clip-rule="evenodd" d="M74.3513 136.733C73.3522 136.794 72.3453 136.824 71.3311 136.824C44.0862 136.824 22 114.738 22 87.4932C22 60.2484 44.0862 38.1622 71.3311 38.1622C93.3639 38.1622 112.023 52.6065 118.356 72.5425C123.226 69.879 128.815 68.3649 134.757 68.3649C153.661 68.3649 168.986 83.6901 168.986 102.595C168.986 121.499 153.661 136.824 134.757 136.824H74.3513V136.733Z" fill="url(#paint1_linear)"/>
<path d="M74.3512 136.733H75.358V135.664L74.2906 135.728L74.3512 136.733ZM118.356 72.5425L117.396 72.8474L117.766 74.0124L118.839 73.4259L118.356 72.5425ZM74.3512 136.824H73.3445V137.831H74.3512V136.824ZM74.2906 135.728C73.3117 135.788 72.3248 135.818 71.331 135.818V137.831C72.3655 137.831 73.3928 137.8 74.4119 137.738L74.2906 135.728ZM71.331 135.818C44.6423 135.818 23.0067 114.182 23.0067 87.4933H20.9932C20.9932 115.294 43.5302 137.831 71.331 137.831V135.818ZM23.0067 87.4933C23.0067 60.8046 44.6423 39.169 71.331 39.169V37.1555C43.5302 37.1555 20.9932 59.6925 20.9932 87.4933H23.0067ZM71.331 39.169C92.9128 39.169 111.193 53.3173 117.396 72.8474L119.315 72.2377C112.854 51.896 93.8151 37.1555 71.331 37.1555V39.169ZM118.839 73.4259C123.565 70.8413 128.988 69.3717 134.757 69.3717V67.3581C128.641 67.3581 122.887 68.9168 117.873 71.6592L118.839 73.4259ZM134.757 69.3717C153.105 69.3717 167.98 84.2461 167.98 102.595H169.993C169.993 83.134 154.217 67.3581 134.757 67.3581V69.3717ZM167.98 102.595C167.98 120.943 153.105 135.818 134.757 135.818V137.831C154.217 137.831 169.993 122.055 169.993 102.595H167.98ZM134.757 135.818H74.3512V137.831H134.757V135.818ZM75.358 136.824V136.733H73.3445V136.824H75.358Z" fill="#E9E9E9" fill-opacity="0.6"/>
</g>
</g>
<line x1="118.251" y1="140.154" x2="120.644" y2="134.652" stroke="#5DB3F3" stroke-opacity="0.7" stroke-width="6" stroke-linecap="round"/>
<line x1="112.756" y1="176.482" x2="116.345" y2="168.229" stroke="#5DB3F3" stroke-opacity="0.7" stroke-width="6" stroke-linecap="round"/>
<line x1="99.0019" y1="159.106" x2="104.586" y2="146.267" stroke="#5DB3F3" stroke-opacity="0.7" stroke-width="6" stroke-linecap="round"/>
<line x1="72.9072" y1="169.692" x2="78.4912" y2="156.854" stroke="#5DB3F3" stroke-opacity="0.7" stroke-width="6" stroke-linecap="round"/>
<defs>
<filter id="filter0_b" x="12" y="28.1622" width="166.986" height="118.662" filterUnits="userSpaceOnUse" color-interpolation-filters="sRGB">
<feFlood flood-opacity="0" result="BackgroundImageFix"/>
<feGaussianBlur in="BackgroundImage" stdDeviation="5"/>
<feComposite in2="SourceAlpha" operator="in" result="effect1_backgroundBlur"/>
<feBlend mode="normal" in="SourceGraphic" in2="effect1_backgroundBlur" result="shape"/>
</filter>
<linearGradient id="paint0_linear" x1="110.595" y1="26.0811" x2="156.906" y2="77.4257" gradientUnits="userSpaceOnUse">
<stop stop-color="#F7D649"/>
<stop offset="1" stop-color="#F0B61F"/>
</linearGradient>
<linearGradient id="paint1_linear" x1="42.1351" y1="49.2365" x2="206.236" y2="157.966" gradientUnits="userSpaceOnUse">
<stop stop-color="white" stop-opacity="0.85"/>
<stop offset="1" stop-color="white" stop-opacity="0.3"/>
</linearGradient>
</defs>
</svg>
