<svg width="14" height="13" fill="none" xmlns="http://www.w3.org/2000/svg">
<g clip-path="url(#clip0)"><path d="M12.834 8.2a7.058 7.058 0 00-.47-5.044l1.174-.638c.497-.27.418-1.035-.126-1.213L10.006.188a.618.618 0 00-.79.428l-1 3.51c-.16.56.418 1.055.915.785l1.372-.745a4.763 4.763 0 01.306 3.341c-.67 2.425-3.15 3.841-5.57 3.025-2.296-.774-3.68-3.329-2.98-5.785a4.423 4.423 0 011.882-2.55.332.332 0 00.108-.432L3.537.396a.317.317 0 00-.446-.133C1.753 1.083.704 2.408.227 4.081c-1.022 3.585.971 7.417 4.451 8.558 3.477 1.14 7.142-.855 8.156-4.439z" />
</g><defs><clipPath id="clip0"><path d="M0 0h14v13H0z"/>
</clipPath>
</defs>
</svg>