<svg viewBox="0 0 128 11" fill="none" xmlns="http://www.w3.org/2000/svg">
<path d="M0.96 1.24C0.96 1.108 1.056 0.939999 1.26 0.939999H7.968C8.172 0.939999 8.34 1.108 8.34 1.3C8.34 1.504 8.172 1.672 7.968 1.66H4.98V9.94C4.98 10.144 4.812 10.3 4.62 10.3C4.416 10.3 4.248 10.144 4.26 9.94V1.66H1.26C1.116 1.66 0.96 1.552 0.96 1.36V1.24ZM12.7823 0.939999C12.9263 0.939999 13.0583 1.036 13.1063 1.18L16.4663 9.808C16.4903 9.844 16.5023 9.904 16.5023 9.94C16.5023 10.144 16.3343 10.3 16.1423 10.3C15.9863 10.3 15.8543 10.216 15.8063 10.072L14.7743 7.432H10.7783L9.75834 10.072C9.69834 10.216 9.56634 10.3 9.42234 10.3C9.21834 10.3 9.06234 10.144 9.06234 9.94C9.06234 9.904 9.06234 9.844 9.08634 9.808L12.4463 1.18C12.4943 1.036 12.6263 0.939999 12.7823 0.939999ZM12.7823 2.296L11.0663 6.7H14.4863L12.7823 2.296ZM19.6856 1.24C19.6856 1.108 19.7936 0.939999 19.9856 0.939999H22.8536C23.0576 0.939999 23.2256 1.108 23.2256 1.3C23.2256 1.504 23.0576 1.672 22.8536 1.66H21.7856V9.58H22.8536C23.0576 9.58 23.2256 9.748 23.2256 9.94C23.2256 10.144 23.0576 10.312 22.8536 10.3H19.9856C19.7456 10.312 19.6136 10.096 19.6256 9.928C19.6256 9.76 19.7696 9.58 19.9856 9.58H21.0656V1.66H19.9856C19.8416 1.66 19.6856 1.564 19.6856 1.36V1.24ZM35.3332 0.939999C35.5372 0.939999 35.7052 1.108 35.7052 1.3C35.7052 1.3 35.7052 1.312 35.6932 1.348L34.7332 9.988C34.7212 10.168 34.5652 10.3 34.3852 10.3C34.2532 10.3 34.1212 10.228 34.0612 10.12L31.0252 4.468L27.9772 10.12C27.9172 10.228 27.7972 10.3 27.6652 10.3C27.4732 10.3 27.3172 10.168 27.3052 9.988L26.7892 5.38L26.3452 1.36C26.3452 1.36 26.3452 1.348 26.3452 1.3C26.3452 1.108 26.5012 0.939999 26.7052 0.939999C26.8852 0.939999 27.0412 1.084 27.0532 1.264L27.4732 4.984L27.8932 8.764L30.7012 3.532C30.7612 3.424 30.8932 3.352 31.0252 3.352C31.1572 3.352 31.2772 3.424 31.3372 3.532L34.1452 8.764L34.9852 1.264C34.9972 1.084 35.1532 0.939999 35.3332 0.939999ZM41.5308 0.939999C41.6748 0.939999 41.8068 1.036 41.8548 1.18L45.2148 9.808C45.2388 9.844 45.2508 9.904 45.2508 9.94C45.2508 10.144 45.0828 10.3 44.8908 10.3C44.7348 10.3 44.6028 10.216 44.5548 10.072L43.5228 7.432H39.5268L38.5068 10.072C38.4468 10.216 38.3148 10.3 38.1708 10.3C37.9668 10.3 37.8108 10.144 37.8108 9.94C37.8108 9.904 37.8108 9.844 37.8348 9.808L41.1948 1.18C41.2428 1.036 41.3748 0.939999 41.5308 0.939999ZM41.5308 2.296L39.8148 6.7H43.2348L41.5308 2.296ZM54.4821 0.939999C54.6861 0.939999 54.8541 1.108 54.8541 1.3V9.952C54.8421 10.144 54.6861 10.3 54.4941 10.3C54.3741 10.3 54.2541 10.24 54.1941 10.144L49.0941 2.5V9.952C49.0941 10.144 48.9261 10.312 48.7341 10.312C48.5301 10.312 48.3741 10.144 48.3741 9.952V1.312C48.3741 1.108 48.5301 0.952 48.7341 0.952C48.8421 0.952 48.9621 1.012 49.0221 1.108L54.1341 8.752V1.312C54.1341 1.108 54.2901 0.952 54.4821 0.939999ZM74.1644 0.939999C74.3684 0.939999 74.5364 1.108 74.5364 1.3C74.5364 1.3 74.5364 1.312 74.5244 1.348L73.5644 9.988C73.5524 10.168 73.3964 10.3 73.2164 10.3C73.0844 10.3 72.9524 10.228 72.8924 10.12L69.8564 4.468L66.8084 10.12C66.7484 10.228 66.6284 10.3 66.4964 10.3C66.3044 10.3 66.1484 10.168 66.1364 9.988L65.6204 5.38L65.1764 1.36C65.1764 1.36 65.1764 1.348 65.1764 1.3C65.1764 1.108 65.3324 0.939999 65.5364 0.939999C65.7164 0.939999 65.8724 1.084 65.8844 1.264L66.3044 4.984L66.7244 8.764L69.5324 3.532C69.5924 3.424 69.7244 3.352 69.8564 3.352C69.9884 3.352 70.1084 3.424 70.1684 3.532L72.9764 8.764L73.8164 1.264C73.8284 1.084 73.9844 0.939999 74.1644 0.939999ZM78.0216 0.939999H82.3416C82.5336 0.939999 82.7016 1.108 82.7016 1.3C82.7016 1.504 82.5336 1.672 82.3416 1.672L78.3816 1.66V5.26H81.8616C82.0536 5.26 82.2216 5.428 82.2216 5.62C82.2216 5.824 82.0536 5.992 81.8616 5.992L78.3816 5.98V9.58H82.3416C82.5336 9.58 82.7016 9.748 82.7016 9.94C82.7016 10.144 82.5336 10.312 82.3416 10.312L78.0216 10.3C77.9136 10.3 77.8176 10.264 77.7576 10.192C77.6976 10.132 77.6616 10.036 77.6616 9.94V5.632V1.3C77.6616 1.108 77.8176 0.939999 78.0216 0.939999ZM89.5425 0.939999C89.6865 0.939999 89.8185 1.036 89.8665 1.18L93.2265 9.808C93.2505 9.844 93.2625 9.904 93.2625 9.94C93.2625 10.144 93.0945 10.3 92.9025 10.3C92.7465 10.3 92.6145 10.216 92.5665 10.072L91.5345 7.432H87.5385L86.5185 10.072C86.4585 10.216 86.3265 10.3 86.1825 10.3C85.9785 10.3 85.8225 10.144 85.8225 9.94C85.8225 9.904 85.8225 9.844 85.8465 9.808L89.2065 1.18C89.2545 1.036 89.3865 0.939999 89.5425 0.939999ZM89.5425 2.296L87.8265 6.7H91.2465L89.5425 2.296ZM93.9834 1.24C93.9834 1.108 94.0794 0.939999 94.2834 0.939999H100.991C101.195 0.939999 101.363 1.108 101.363 1.3C101.363 1.504 101.195 1.672 100.991 1.66H98.0034V9.94C98.0034 10.144 97.8354 10.3 97.6434 10.3C97.4394 10.3 97.2714 10.144 97.2834 9.94V1.66H94.2834C94.1394 1.66 93.9834 1.552 93.9834 1.36V1.24ZM104.836 0.939999C105.04 0.939999 105.208 1.108 105.208 1.3V5.26H109.768V1.3C109.768 1.108 109.924 0.952 110.116 0.939999C110.32 0.939999 110.488 1.108 110.488 1.3V5.62V9.94C110.488 10.144 110.32 10.3 110.128 10.3C109.924 10.3 109.768 10.144 109.768 9.94V5.98H105.208V9.94C105.208 10.144 105.04 10.3 104.848 10.3C104.644 10.3 104.488 10.144 104.488 9.94V5.632V1.3C104.488 1.108 104.644 0.952 104.836 0.939999ZM113.97 0.939999H118.29C118.482 0.939999 118.65 1.108 118.65 1.3C118.65 1.504 118.482 1.672 118.29 1.672L114.33 1.66V5.26H117.81C118.002 5.26 118.17 5.428 118.17 5.62C118.17 5.824 118.002 5.992 117.81 5.992L114.33 5.98V9.58H118.29C118.482 9.58 118.65 9.748 118.65 9.94C118.65 10.144 118.482 10.312 118.29 10.312L113.97 10.3C113.862 10.3 113.766 10.264 113.706 10.192C113.646 10.132 113.61 10.036 113.61 9.94V5.632V1.3C113.61 1.108 113.766 0.939999 113.97 0.939999ZM122.131 0.939999H124.291C125.227 0.939999 125.959 1.324 126.451 1.9C126.931 2.464 127.171 3.208 127.171 3.94C127.171 4.684 126.931 5.428 126.451 5.992C126.235 6.256 125.971 6.46 125.647 6.628C125.791 6.712 125.923 6.796 126.055 6.904C126.283 7.072 126.487 7.276 126.667 7.492C127.255 8.212 127.567 9.112 127.699 9.868C127.735 10.072 127.603 10.264 127.399 10.288C127.207 10.324 127.015 10.192 126.991 9.988C126.883 9.328 126.595 8.536 126.103 7.948C125.959 7.768 125.803 7.6 125.623 7.468C125.251 7.18 124.819 6.988 124.231 6.94H122.491V9.94C122.491 10.144 122.323 10.3 122.131 10.3C121.927 10.3 121.759 10.144 121.771 9.94V6.604V1.3C121.771 1.108 121.927 0.939999 122.131 0.939999ZM122.491 1.66V6.22H124.291C125.023 6.22 125.551 5.944 125.899 5.524C126.259 5.104 126.451 4.528 126.451 3.94C126.451 3.364 126.259 2.788 125.899 2.368C125.551 1.948 125.023 1.66 124.291 1.66H122.491Z" fill="black"/>
</svg>
