<svg width="17" height="17" xmlns="http://www.w3.org/2000/svg">
<path d="M13.449 1.404c-.806 0-1.595.278-2.223.782a.498.498 0 00.623.777 2.558 2.558 0 014.154 1.992A2.558 2.558 0 0113.45 7.51H4.084a.498.498 0 000 .996h9.365A3.555 3.555 0 0017 4.956a3.555 3.555 0 00-3.551-3.552z"/>
<path d="M3.13 6.518h5.32a.498.498 0 100-.997H3.13a.498.498 0 000 .997zM8.31 9.506H.499a.498.498 0 000 .996h7.813c1.13 0 2.048.919 2.048 2.049a2.051 2.051 0 01-3.331 1.597.498.498 0 00-.624.777 3.048 3.048 0 004.951-2.374 3.048 3.048 0 00-3.044-3.045zM.498 6.518h.672a.498.498 0 000-.997H.498a.498.498 0 000 .997z"/>
<path d="M6.508 11.986a.498.498 0 00-.498-.498H3.02a.498.498 0 000 .996H6.01a.498.498 0 00.498-.498z" />
</svg>